<svg xmlns="http://www.w3.org/2000/svg" viewBox="0 0 35 29" width="35" height="29">
    <path d="M0 11.18c.48.03.99 0 1.48 0h5.64c.42 0 .86.03 1.28 0v4.5c0 .74-.03 1.5 0 2.24-.26.05-.55 0-.82 0H.01v-5.95c0-.26.03-.54 0-.8Zm26.96 0c1.69-.02 3.39 0 5.09 0h1.83c.36 0 .72-.02 1.08 0 .03.06 0 1.59 0 1.77v3.77c0 .24.04 1.02 0 1.19-.2-.05-.64 0-.87 0h-7.95c-.01-.65 0-1.3 0-1.95v-4.78h.83ZM0 19.52h8.39c3.86.02 6.29 5 3.2 8.02-.23.18-.43.4-.68.58-.82.59-1.95.83-2.94.85-2.18.05-4.28-.13-5.94-1.71C-.46 24.86.08 22.63 0 19.52Zm25.8 0h9.15c.09.21 0 .74 0 .98 0 1.87.13 2.86-.58 4.6-.73 1.76-2.16 2.97-3.96 3.6-.88.31-3.3.34-4.35.26-2.04-.15-4.11-1.82-4.44-3.87-.47-2.82 1.45-5.13 4.18-5.58ZM6.34.01c.26-.02.54 0 .8 0h19.42c1.93 0 3.47-.09 5.17.93 1.19.71 2.18 1.82 2.71 3.1.61 1.46.51 2.8.51 4.35 0 .24.05 1.04 0 1.23-.37.03-.77 0-1.14 0H27.8c-1.32 0-3.1.38-3.83-.96-.41-.76-.26-1.73.33-2.34.57-.59 1.2-.58 1.96-.57 1.48.03 1.54-1.31.48-1.58-.87-.22-2.31.05-3.06.5-2.46 1.48-1.87 5.71.8 6.32-.03.29 0 .6 0 .89v4.86c0 .49-.02.99 0 1.49-1.83.58-3.4 1.89-4.13 3.69-.53 1.3-.59 3.27-.03 4.6.33.88 1.01 1.9 1.8 2.44-.31.02-.62 0-.93 0h-7.32c-.17 0-1.53.02-1.57 0 .08-.11.23-.19.33-.29 1.64-1.49 2.47-3.79 1.89-5.96-.52-1.95-2.07-3.48-3.91-4.25-.21-.09-.44-.2-.67-.23V13.1c0-.64-.03-1.3-.01-1.93 0-.33.6-.42.84-.56 2.61-1.56 1.86-5.73-1.08-6.41-.6-.14-3.13-.09-3.87-.06-1.13.05-1.16 1.3-.22 1.56.29.08.62.04.91.04h1.46c.74 0 1.62-.11 2.22.42 1.17 1.06.74 3.02-.7 3.37-.46.11-.95.08-1.41.08H2.26c-.75 0-1.5-.03-2.25 0C-.03 8.94 0 8.24 0 7.55c0-1.85-.01-3 1.13-4.67C2.44.97 4.13.2 6.34.01Z"/>
</svg>
